<?xml version="1.0" encoding="utf-8"?>
<!-- Generator: Adobe Illustrator 28.0.0, SVG Export Plug-In . SVG Version: 6.00 Build 0)  -->
<svg version="1.1" id="Ebene_1" xmlns="http://www.w3.org/2000/svg" xmlns:xlink="http://www.w3.org/1999/xlink" x="0px" y="0px"
	 viewBox="14 10 78 70" xml:space="preserve">
<style type="text/css">
	.st0{display:none;fill:none;stroke:#FFFFFF;stroke-width:7;stroke-linecap:round;stroke-miterlimit:10;}
	.st1{fill:none;stroke:#0073E6;stroke-width:8.66;stroke-linejoin:round;stroke-miterlimit:10;}
	.st2{fill:#3DC7FF;}
</style>
<circle id="White" class="st0" cx="120.5" cy="-30.2" r="116.5"/>
<path class="st1" d="M86.9,44.6L76.4,15.8H30.1L19.6,44.6H86.9z M86.9,45.3H19.6v28.9h67.2V45.3z"/>
<path class="st2" d="M30.3,62.7L30.3,62.7c-1.7-1.7-1.7-4.4-0.1-6c1.6-1.6,4.3-1.6,5.9,0l0.1,0.1c1.6,1.6,1.6,4.3,0,5.9
	C34.5,64.3,31.9,64.3,30.3,62.7"/>
<path class="st2" d="M41.6,62.7L41.6,62.7c-1.7-1.7-1.7-4.4-0.1-6c1.6-1.6,4.3-1.6,5.9,0l0.1,0.1c1.6,1.6,1.6,4.3,0,5.9
	C45.8,64.3,43.2,64.3,41.6,62.7"/>
<line class="st1" x1="61.6" y1="59.7" x2="76.7" y2="59.7"/>
</svg>
